<svg xmlns="http://www.w3.org/2000/svg" viewBox="0 0 512 512">
  <!-- Hintergrund -->
  <rect width="512" height="512" rx="80" fill="#0f172a"/>

  <!-- Rennwagen -->
  <!-- Unterboden / Diffusor -->
  <rect x="90" y="310" width="330" height="18" rx="4" fill="#e2e8f0"/>
  <!-- Heckflügel-Stützen -->
  <rect x="370" y="255" width="12" height="55" rx="3" fill="#94a3b8"/>
  <rect x="395" y="255" width="12" height="55" rx="3" fill="#94a3b8"/>
  <!-- Heckflügel -->
  <rect x="345" y="240" width="100" height="18" rx="4" fill="#e2e8f0"/>
  <rect x="345" y="222" width="100" height="12" rx="3" fill="#cbd5e1"/>
  <!-- Karosserie -->
  <path d="M120 310 L120 265 Q130 240 180 235 L260 230 Q310 228 340 240 L390 255 L400 310 Z" fill="#1e40af"/>
  <!-- Cockpit / Überrollbügel -->
  <path d="M230 235 Q240 210 270 205 Q295 202 310 215 L310 235 Z" fill="#0f172a"/>
  <rect x="255" y="203" width="18" height="32" rx="4" fill="#475569"/>
  <!-- Frontflügel -->
  <path d="M90 300 L130 290 L130 310 L85 310 Z" fill="#e2e8f0"/>
  <path d="M75 295 L130 285 L130 295 L75 298 Z" fill="#cbd5e1"/>
  <!-- Sidepods -->
  <path d="M180 255 L180 310 L320 310 L320 255 Q290 248 240 248 Q210 248 180 255 Z" fill="#1d4ed8"/>
  <!-- Cockpit-Schutz (Halo) -->
  <path d="M240 228 Q256 215 272 228" stroke="#94a3b8" stroke-width="8" fill="none" stroke-linecap="round"/>
  <!-- Vorderräder -->
  <circle cx="155" cy="318" r="32" fill="#1e293b"/>
  <circle cx="155" cy="318" r="20" fill="#334155"/>
  <circle cx="155" cy="318" r="8" fill="#64748b"/>
  <!-- Hinterräder -->
  <circle cx="355" cy="318" r="36" fill="#1e293b"/>
  <circle cx="355" cy="318" r="23" fill="#334155"/>
  <circle cx="355" cy="318" r="9" fill="#64748b"/>
  <!-- Reifenstreifen Vorne -->
  <path d="M126 303 Q132 298 155 298 Q178 298 184 303" stroke="#475569" stroke-width="5" fill="none"/>
  <path d="M126 333 Q132 338 155 338 Q178 338 184 333" stroke="#475569" stroke-width="5" fill="none"/>
  <!-- Reifenstreifen Hinten -->
  <path d="M322 302 Q334 296 355 296 Q376 296 388 302" stroke="#475569" stroke-width="5" fill="none"/>
  <path d="M322 334 Q334 340 355 340 Q376 340 388 334" stroke="#475569" stroke-width="5" fill="none"/>
  <!-- Lufteinlass -->
  <ellipse cx="258" cy="238" rx="18" ry="10" fill="#0f172a"/>

  <!-- "F1 RPG" Text -->
  <text x="256" y="420" font-family="Arial Black, sans-serif" font-size="68" font-weight="900"
        fill="#ffffff" text-anchor="middle" letter-spacing="2">F1 RPG</text>

  <!-- Rote Akzentlinie -->
  <rect x="90" y="360" width="330" height="6" rx="3" fill="#ef4444"/>
</svg>
