<?xml version="1.0" encoding="UTF-8"?>
<svg id="Layer_1" xmlns="http://www.w3.org/2000/svg" version="1.1" viewBox="0 0 327.92 107.5">
  <!-- Generator: Adobe Illustrator 29.4.0, SVG Export Plug-In . SVG Version: 2.1.0 Build 152)  -->
  <defs>
    <style>
      .st0, .st1 {
        fill: #ed1a3b;
      }

      .st0, .st2 {
        fill-rule: evenodd;
      }

      .st2 {
        fill: #044b9d;
      }
    </style>
  </defs>
  <g>
    <polygon class="st0" points="154.72 57.9 154.72 34.7 187.52 34.7 187.52 57.9 195.62 57.9 195.62 7.8 187.52 7.8 187.52 27.6 154.72 27.6 154.72 7.8 146.52 7.8 146.52 57.9 154.72 57.9"/>
    <path class="st0" d="M231.02,53.8c.8,4,3.6,4.5,6.5,4.5,1.8,0,3.9-.2,5.5-.4l.3-.1v-5.6l-.5.1c-.7.1-1.6.3-2.3.3-1.9,0-2.7-.8-2.7-2.7v-19.5c0-9.3-10.7-10.7-17.1-10.7-11.7,0-17.5,4.1-18.4,12.9v.4h7.3v-.4c.2-4.6,3.7-6.8,10.8-6.8,7,0,10.1,1.7,10.1,5.6,0,2.8-1.9,3.5-5.9,4l-7.9.8c-11.4,1.2-15.9,4.5-15.9,11.7,0,3.4,1.5,11.3,15.1,11.3,5.1,0,11.8-1.7,15.1-5.4h0ZM226.42,50.3c-2.6,1.8-6.1,2.8-9.9,2.8-4.8,0-8.1-2.2-8.1-5.4,0-3.3,2.2-4.8,7.9-5.6l7.8-1c3.1-.4,5.1-.8,6.3-1.7v3.8c.1,2.8-1.4,5.3-4,7.1Z"/>
    <path class="st0" d="M288.22,52.3c-.7.1-1.6.3-2.3.3-1.9,0-2.7-.8-2.7-2.7v-19.5c0-9.3-10.7-10.7-17.1-10.7-11.7,0-17.5,4.1-18.4,12.9v.4h7.3v-.4c.2-4.6,3.7-6.8,10.8-6.8,7,0,10.1,1.7,10.1,5.6,0,2.8-1.9,3.5-5.9,4l-7.9.8c-11.4,1.2-15.9,4.5-15.9,11.7,0,3.4,1.5,11.3,15.1,11.3,5.1,0,11.9-1.7,15.2-5.4.8,4,3.6,4.5,6.5,4.5,1.8,0,3.9-.2,5.5-.4l.3-.1v-5.6l-.6.1h0ZM275.82,43.2c0,2.7-1.5,5.2-4.1,7s-6.1,2.8-9.9,2.8c-4.8,0-8.1-2.2-8.1-5.4,0-3.3,2.2-4.8,7.9-5.6l7.8-1c3.1-.4,5.1-.8,6.3-1.7l.1,3.9h0Z"/>
    <path class="st0" d="M290.52,45.8v.4c.6,8.6,7,13,18.9,13,5.7,0,10.3-1,13.4-3.1,3.4-2.2,5.1-5.4,5.1-9.7,0-5.6-4.1-8.8-13-10l-9.8-1.3c-4.8-.7-5.7-2-5.7-4.1,0-1.8,1-3.1,2.9-4,1.6-.7,3.8-1.1,6.3-1.1,7.5,0,10.3,3.3,10.5,6.4v.4h7.7v-.4c-.7-8.1-7.1-12.5-18.1-12.5-5.1,0-9.3,1.1-12.3,3.2s-4.6,5.2-4.6,8.9c0,6,5.1,9.3,10.2,10l11.4,1.5c5.4.7,6.5,2.2,6.5,4.5,0,1-.3,2.4-2,3.5-1.8,1.2-4.7,1.8-8.7,1.8-8.1,0-11-3.6-11-6.9v-.4h-7.7v-.1h0Z"/>
    <polygon class="st2" points="171.02 67 146.62 67 146.62 98.3 151.92 98.3 151.92 84.7 170.12 84.7 170.12 80 151.92 80 151.92 71.7 171.02 71.7 171.02 67"/>
    <path class="st2" d="M183.52,67v.4c-.3,3.5-3.2,5.3-8.5,5.3h-1.4v4.1h8.9v21.6h5.3v-31.3h-4.3v-.1Z"/>
    <polygon class="st2" points="233.72 71.7 233.72 67 205.22 67 205.22 71.7 216.82 71.7 216.82 98.3 222.12 98.3 222.12 71.7 233.72 71.7"/>
    <path class="st2" d="M242.92,74.4c-4.2,0-7.7,1.3-10.1,3.7-2.2,2.2-3.3,5.3-3.3,8.7,0,7.5,5.3,12.4,13.4,12.4,4.3,0,9.6-2.1,11.9-7.8l.2-.5h-5.4l-.1.2c-1.6,3.4-5.3,3.8-6.9,3.8-3.5,0-7.3-2.2-7.8-6.3h20.6v-.9c.1-9.9-6.4-13.3-12.5-13.3h0ZM242.72,78.7c3.8,0,6.6,2.1,7.4,5.6h-15c.7-3.4,3.7-5.6,7.6-5.6Z"/>
    <path class="st2" d="M284.22,94.6c-.4.1-1,.2-1.4.2-1.1,0-1.5-.4-1.5-1.5v-12.2c0-5.9-6.7-6.8-10.7-6.8-7.3,0-11,2.6-11.5,8.1v.4h4.8v-.4c.1-2.7,2.2-4.1,6.5-4.1s6.1,1,6.1,3.3c0,1.7-1.1,2-3.5,2.3l-4.9.5c-7.1.8-10,2.9-10,7.4,0,2.1.9,7.1,9.5,7.1,3.1,0,7.2-1,9.3-3.2.6,2.3,2.4,2.7,4.1,2.7,1.1,0,2.4-.1,3.4-.3l.3-.1v-3.8l-.5.4h0ZM276.42,89.1c0,1.6-.9,3.1-2.5,4.2s-3.7,1.7-6,1.7c-2.9,0-4.8-1.3-4.8-3.2,0-2,1.3-2.9,4.8-3.3l4.8-.6c1.8-.2,3-.4,3.8-.9l-.1,2.1h0Z"/>
    <path class="st2" d="M326.82,82.7c0-6.6-5.6-8.3-8.9-8.3-3.9,0-6.7,1.2-9,3.9-1.7-2.5-4.4-3.9-7.7-3.9-2.2,0-6,.5-8.5,3.5v-2.7h-5.1v23.2h5.1v-13.3c0-1.9.7-3.6,2.1-4.7,1.2-1,3-1.6,4.9-1.6,2.3,0,5,.9,5,5v14.6h5.1v-14c0-1.8.7-3.3,2.1-4.3,1.2-.9,3-1.4,4.9-1.4,2.3,0,5,.9,5,5v14.6h5s0-15.6,0-15.6Z"/>
  </g>
  <path class="st1" d="M68.12,0C38.42,0,14.42,24.1,14.42,53.8c0,1.1,0,2.1.1,3.1h-7.52L0,69.3h16.72c6.7,22.1,27.2,38.2,51.5,38.2,29.7,0,53.8-24.1,53.8-53.8-.1-29.6-24.2-53.7-53.9-53.7ZM29.72,69.3h14.3l-6.9,12c-3-3.5-5.6-7.5-7.4-12ZM68.12,95.2c-11.3,0-21.5-4.5-28.9-11.8h11.6l33.83-59.6h-14.3101l-19.02,33.1h-24.5c-.1-1-.1-2.1-.1-3.1,0-22.9,18.5-41.5,41.4-41.5,11.7,0,22.2,4.9,29.8,12.7-3.3,5.5-17.9,30.4-19.9,34-1.1-2.6-6.4-2.1-9.2-2.2-1.2,2-6.7,12.5-6.7,12.5h5.8c2.7,0,3,2.8,1.9,4.6-1.1,1.8-5.4,9.5-5.4,9.5h14.1s17.3-30.2,27.1-47.3c2.6,5.4,4,11.4,4,17.7,0,22.8-18.6,41.4-41.5,41.4h0Z"/>
</svg>