<?xml version="1.0" encoding="utf-8"?>
<!-- Generator: Adobe Illustrator 13.0.0, SVG Export Plug-In . SVG Version: 6.00 Build 14948)  -->
<!DOCTYPE svg PUBLIC "-//W3C//DTD SVG 1.1//EN" "http://www.w3.org/Graphics/SVG/1.1/DTD/svg11.dtd">
<svg version="1.1" xmlns="http://www.w3.org/2000/svg" xmlns:xlink="http://www.w3.org/1999/xlink" x="0px" y="0px"
	 width="557.157px" height="107.395px" viewBox="0 0 557.157 107.395" enable-background="new 0 0 557.157 107.395"
	 xml:space="preserve">
<g id="Layer_2">
	<g>
		<defs>
			<circle id="SVGID_1_" cx="54.236" cy="53.507" r="50.092"/>
		</defs>
		<use xlink:href="#SVGID_1_"  overflow="visible" fill="#FF0000"/>
		<clipPath id="SVGID_2_">
			<use xlink:href="#SVGID_1_"  overflow="visible"/>
		</clipPath>
		<path clip-path="url(#SVGID_2_)" fill="#FFFFFF" d="M0,64.133c0,0,50.851-9.867,54.266-64.133h9.487
			c0,0,9.107,69.066-62.995,67.548L0,64.133z"/>
		<path clip-path="url(#SVGID_2_)" fill="#FFFFFF" d="M11.005,22.011c0,0,20.872,26.563,71.723,22.769L66.41,55.785
			c0,0-36.811,4.174-59.58-26.185L11.005,22.011z"/>
		<path clip-path="url(#SVGID_2_)" fill="#FFFFFF" d="M105.876,39.466c0,0-63.754-4.174-55.785,66.79l7.969,1.139
			c0,0-3.036-46.678,48.574-62.995L105.876,39.466z"/>
	</g>
</g>
<g id="Layer_3">
	<g>
		<path fill="#FF0000" d="M370.996,98.977v-38h24.688v6.438h-17.406v8.969h15.031v6.438h-15.031v16.156H370.996z"/>
		<path fill="#FF0000" d="M417.819,98.977h-6.906V71.563c-2.52,2.482-5.488,4.318-8.906,5.508v-6.594
			c1.801-0.622,3.756-1.803,5.868-3.541c2.111-1.738,3.56-3.767,4.347-6.084h5.598V98.977z"/>
		<path fill="#FF0000" d="M455.524,71.446v5.813h-4.719v11.1c0,2.248,0.045,3.558,0.135,3.929c0.091,0.373,0.296,0.68,0.616,0.922
			c0.319,0.242,0.71,0.362,1.169,0.362c0.641,0,1.568-0.233,2.783-0.7l0.578,5.645c-1.603,0.725-3.417,1.087-5.443,1.087
			c-1.243,0-2.363-0.221-3.36-0.661c-0.997-0.439-1.729-1.01-2.194-1.711c-0.467-0.699-0.789-1.646-0.969-2.838
			c-0.147-0.847-0.221-2.557-0.221-5.133V77.258h-3.156v-5.813h3.156v-5.469l6.906-4.281v9.75H455.524z"/>
		<path fill="#FF0000" d="M475.464,90.227l6.875,1.219c-0.885,2.658-2.28,4.683-4.188,6.071c-1.908,1.391-4.295,2.085-7.16,2.085
			c-4.537,0-7.895-1.563-10.072-4.688c-1.72-2.504-2.579-5.663-2.579-9.479c0-4.559,1.13-8.128,3.391-10.71
			c2.261-2.581,5.119-3.872,8.575-3.872c3.883,0,6.946,1.351,9.19,4.053s3.317,6.841,3.219,12.416h-17.313
			c0.049,2.16,0.606,3.841,1.673,5.042s2.395,1.802,3.986,1.802c1.082,0,1.992-0.311,2.73-0.933
			C474.53,92.611,475.086,91.609,475.464,90.227z M475.871,82.852c-0.05-2.103-0.566-3.701-1.552-4.796
			c-0.985-1.094-2.185-1.642-3.597-1.642c-1.511,0-2.759,0.577-3.744,1.732s-1.47,2.724-1.453,4.705H475.871z"/>
		<path fill="#FF0000" d="M493.474,79.852l-6.25-1.188c0.705-2.655,1.919-4.622,3.641-5.897c1.722-1.277,4.28-1.915,7.675-1.915
			c3.084,0,5.38,0.384,6.889,1.152s2.57,1.744,3.186,2.927s0.923,3.354,0.923,6.514l-0.094,8.494c0,2.417,0.11,4.199,0.329,5.348
			c0.221,1.148,0.631,2.379,1.233,3.69h-6.844c-0.181-0.482-0.401-1.198-0.663-2.146c-0.115-0.431-0.197-0.716-0.246-0.854
			c-1.178,1.208-2.439,2.114-3.781,2.719c-1.343,0.604-2.775,0.906-4.297,0.906c-2.686,0-4.802-0.769-6.349-2.308
			s-2.32-3.484-2.32-5.836c0-1.555,0.353-2.943,1.057-4.162s1.691-2.151,2.961-2.8s3.101-1.214,5.493-1.698
			c3.227-0.641,5.463-1.236,6.708-1.79v-0.723c0-1.394-0.328-2.387-0.984-2.98s-1.894-0.891-3.714-0.891
			c-1.23,0-2.19,0.255-2.879,0.763C494.458,77.685,493.901,78.578,493.474,79.852z M502.724,85.758
			c-0.885,0.312-2.285,0.684-4.202,1.116c-1.916,0.433-3.17,0.855-3.759,1.271c-0.901,0.674-1.352,1.531-1.352,2.568
			c0,1.021,0.36,1.903,1.081,2.646c0.721,0.744,1.638,1.116,2.752,1.116c1.245,0,2.433-0.433,3.563-1.298
			c0.836-0.656,1.385-1.461,1.646-2.412c0.18-0.623,0.271-1.809,0.271-3.556V85.758z"/>
		<path fill="#FF0000" d="M515.795,71.446h6.375v3.757c2.276-2.9,4.986-4.351,8.131-4.351c1.671,0,3.12,0.362,4.349,1.087
			s2.235,1.82,3.022,3.285c1.145-1.465,2.381-2.561,3.707-3.285c1.325-0.725,2.741-1.087,4.247-1.087c1.915,0,3.535,0.41,4.861,1.23
			c1.325,0.82,2.315,2.024,2.971,3.612c0.475,1.174,0.712,3.074,0.712,5.697v17.585h-6.906V83.253c0-2.729-0.237-4.49-0.711-5.285
			c-0.639-1.035-1.619-1.554-2.943-1.554c-0.965,0-1.873,0.312-2.723,0.933c-0.852,0.622-1.465,1.533-1.84,2.732
			c-0.377,1.201-0.564,3.096-0.564,5.687v13.211h-6.906V83.901c0-2.677-0.123-4.403-0.369-5.181s-0.627-1.355-1.143-1.736
			c-0.517-0.379-1.217-0.569-2.102-0.569c-1.066,0-2.025,0.302-2.877,0.907c-0.853,0.604-1.463,1.477-1.832,2.615
			c-0.369,1.141-0.553,3.031-0.553,5.674v13.366h-6.906V71.446z"/>
	</g>
</g>
<g id="Layer_3_copy">
	<g>
		<path fill="#FF0000" d="M128.43,49.993v-38h7.063v14.969h13.938V11.993h7.063v38h-7.063V33.399h-13.938v16.594H128.43z"/>
		<path fill="#FF0000" d="M163.572,49.993v-38h7.063v38H163.572z"/>
		<path fill="#FF0000" d="M175.613,37.649l6.875-0.719c0.414,2.505,1.255,4.345,2.521,5.52s2.975,1.762,5.126,1.762
			c2.278,0,3.995-0.522,5.15-1.568c1.155-1.045,1.733-2.268,1.733-3.667c0-0.898-0.243-1.663-0.728-2.293s-1.333-1.179-2.542-1.646
			c-0.828-0.311-2.714-0.864-5.658-1.66c-3.788-1.02-6.446-2.273-7.974-3.76c-2.148-2.091-3.223-4.64-3.223-7.647
			c0-1.936,0.505-3.746,1.516-5.431s2.467-2.968,4.369-3.85s4.198-1.322,6.887-1.322c4.393,0,7.699,1.045,9.918,3.134
			c2.221,2.089,3.387,4.878,3.498,8.366l-7.063,0.344c-0.302-1.954-0.949-3.359-1.942-4.216c-0.993-0.856-2.482-1.284-4.468-1.284
			c-2.05,0-3.654,0.458-4.813,1.375c-0.747,0.588-1.12,1.375-1.12,2.361c0,0.899,0.35,1.669,1.049,2.309
			c0.89,0.813,3.051,1.66,6.484,2.542c3.433,0.882,5.972,1.793,7.617,2.734c1.645,0.941,2.933,2.229,3.862,3.861
			s1.395,3.649,1.395,6.05c0,2.177-0.559,4.215-1.672,6.115c-1.115,1.9-2.691,3.313-4.729,4.236s-4.578,1.386-7.619,1.386
			c-4.427,0-7.826-1.109-10.198-3.329C177.492,45.132,176.075,41.898,175.613,37.649z"/>
		<path fill="#FF0000" d="M210.053,49.993v-38h11.354c4.303,0,7.107,0.19,8.414,0.57c2.008,0.57,3.689,1.81,5.045,3.719
			c1.354,1.909,2.031,4.375,2.031,7.397c0,2.332-0.391,4.293-1.172,5.882c-0.781,1.589-1.774,2.837-2.979,3.744
			c-1.204,0.907-2.428,1.507-3.672,1.801c-1.689,0.363-4.138,0.544-7.343,0.544h-4.616v14.344H210.053z M217.116,18.431v10.781
			h3.879c2.794,0,4.662-0.199,5.604-0.596s1.68-1.019,2.215-1.866s0.803-1.832,0.803-2.955c0-1.382-0.375-2.522-1.125-3.421
			c-0.751-0.898-1.701-1.46-2.85-1.685c-0.847-0.173-2.547-0.259-5.102-0.259H217.116z"/>
		<path fill="#FF0000" d="M270.672,49.993h-7.697l-3.043-8.625h-14.01l-2.898,8.625h-7.508l13.63-38h7.507L270.672,49.993z
			 M257.653,34.931l-4.84-14.063l-4.727,14.063H257.653z"/>
		<path fill="#FF0000" d="M274.501,49.993v-38h6.874l14.407,25.437V11.993h6.563v38h-7.091l-14.19-24.866v24.866H274.501z"/>
		<path fill="#FF0000" d="M309.581,49.993v-38h7.063v38H309.581z"/>
		<path fill="#FF0000" d="M354.997,49.993h-7.697l-3.043-8.625h-14.01l-2.898,8.625h-7.508l13.63-38h7.507L354.997,49.993z
			 M341.977,34.931l-4.84-14.063l-4.727,14.063H341.977z"/>
		<path fill="#FF0000" d="M370.549,49.993v-38h14.922c3.753,0,6.479,0.341,8.18,1.023c1.701,0.683,3.063,1.896,4.084,3.64
			s1.533,3.739,1.533,5.984c0,2.85-0.774,5.204-2.322,7.06s-3.861,3.027-6.941,3.51c1.529,0.969,2.793,2.032,3.789,3.19
			c0.996,1.159,2.338,3.216,4.027,6.173l4.291,7.418h-8.471l-5.119-8.28c-1.826-2.955-3.076-4.817-3.749-5.586
			c-0.673-0.769-1.386-1.296-2.139-1.581s-1.946-0.428-3.581-0.428h-1.441v15.875H370.549z M377.612,28.056h5.265
			c3.413,0,5.544-0.155,6.394-0.466s1.515-0.845,1.996-1.604c0.48-0.759,0.721-1.708,0.721-2.846c0-1.276-0.316-2.307-0.949-3.092
			c-0.633-0.785-1.527-1.281-2.681-1.488c-0.577-0.086-2.308-0.129-5.192-0.129h-5.553V28.056z"/>
		<path fill="#FF0000" d="M437.503,49.993h-7.697l-3.043-8.625h-14.009l-2.9,8.625h-7.507l13.63-38h7.508L437.503,49.993z
			 M424.485,34.931l-4.841-14.063l-4.728,14.063H424.485z"/>
		<path fill="#FF0000" d="M463.708,35.993l6.875,2.344c-1.053,4.165-2.805,7.259-5.254,9.28s-5.557,3.032-9.321,3.032
			c-4.659,0-8.488-1.723-11.487-5.169c-3-3.446-4.5-8.158-4.5-14.135c0-6.322,1.508-11.232,4.523-14.73s6.98-5.247,11.896-5.247
			c4.292,0,7.778,1.375,10.46,4.123c1.596,1.625,2.792,3.959,3.59,7.002l-7,1.813c-0.416-1.969-1.283-3.524-2.602-4.665
			c-1.32-1.14-2.922-1.71-4.809-1.71c-2.606,0-4.721,1.01-6.344,3.03s-2.434,5.292-2.434,9.815c0,4.8,0.799,8.218,2.395,10.255
			c1.598,2.037,3.673,3.056,6.228,3.056c1.884,0,3.505-0.65,4.862-1.952S463.117,38.787,463.708,35.993z"/>
		<path fill="#FF0000" d="M476.412,49.993v-38h7.063v38H476.412z"/>
		<path fill="#FF0000" d="M490.296,49.993v-38h6.874l14.407,25.437V11.993h6.563v38h-7.091l-14.19-24.866v24.866H490.296z"/>
		<path fill="#FF0000" d="M541.907,36.087v-6.438h15.25v15.112c-1.482,1.557-3.631,2.927-6.443,4.111
			c-2.814,1.185-5.664,1.777-8.549,1.777c-3.666,0-6.862-0.833-9.588-2.5s-4.773-4.051-6.145-7.151s-2.057-6.473-2.057-10.118
			c0-3.956,0.765-7.471,2.295-10.546c1.529-3.075,3.768-5.433,6.715-7.074c2.246-1.261,5.043-1.892,8.389-1.892
			c4.35,0,7.748,0.988,10.193,2.964c2.445,1.976,4.02,4.707,4.721,8.192l-7.031,1.438c-0.494-1.863-1.423-3.334-2.785-4.413
			s-3.063-1.618-5.104-1.618c-3.092,0-5.55,1.062-7.375,3.186c-1.824,2.124-2.736,5.274-2.736,9.452
			c0,4.506,0.924,7.886,2.773,10.139s4.273,3.379,7.271,3.379c1.482,0,2.969-0.313,4.46-0.939s2.771-1.385,3.839-2.276v-4.785
			H541.907z"/>
	</g>
</g>
<g id="Layer_5">
	<rect x="128.384" y="60.76" fill="#FF0000" width="226.314" height="38.325"/>
	<rect x="128.384" y="73.167" fill="#FFFF00" width="226.235" height="13.637"/>
</g>
</svg>
