<?xml version="1.0" encoding="UTF-8" standalone="no"?>
<svg
   xmlns:dc="http://purl.org/dc/elements/1.1/"
   xmlns:cc="http://creativecommons.org/ns#"
   xmlns:rdf="http://www.w3.org/1999/02/22-rdf-syntax-ns#"
   xmlns:svg="http://www.w3.org/2000/svg"
   xmlns="http://www.w3.org/2000/svg"
   xmlns:xlink="http://www.w3.org/1999/xlink"
   xmlns:sodipodi="http://sodipodi.sourceforge.net/DTD/sodipodi-0.dtd"
   xmlns:inkscape="http://www.inkscape.org/namespaces/inkscape"
   width="2000mm"
   height="1409.6921mm"
   viewBox="0 0 2000 1409.6922"
   version="1.1"
   id="svg8"
   inkscape:version="1.0 (4035a4fb49, 2020-05-01)"
   sodipodi:docname="Mild Seven Renault 2003-2006.svg">
  <defs
     id="defs2">
    <linearGradient
       gradientUnits="userSpaceOnUse"
       y2="480.22101"
       x2="486.72"
       y1="531.17102"
       x1="435.76999"
       id="1"
       gradientTransform="matrix(0.4374044,0,0,0.4374044,-86.557573,-13.659536)">
      <stop
         id="stop36"
         style="stop-color:#6a7b84"
         offset="0" />
      <stop
         id="stop38"
         style="stop-color:#6a7b84"
         offset="1" />
    </linearGradient>
    <linearGradient
       id="linearGradient1295"
       inkscape:collect="always">
      <stop
         id="stop1291"
         offset="0"
         style="stop-color:#f9db8c;stop-opacity:1" />
      <stop
         id="stop1293"
         offset="1"
         style="stop-color:#ce9f12;stop-opacity:1" />
    </linearGradient>
    <linearGradient
       inkscape:collect="always"
       id="linearGradient1857">
      <stop
         style="stop-color:#5a6a75;stop-opacity:1"
         offset="0"
         id="stop1853" />
      <stop
         id="stop1861"
         offset="0.36238715"
         style="stop-color:#5a6a75;stop-opacity:1" />
      <stop
         style="stop-color:#c8cfd4;stop-opacity:1"
         offset="1"
         id="stop1855" />
    </linearGradient>
    <linearGradient
       id="linearGradient1851"
       inkscape:collect="always">
      <stop
         id="stop1847"
         offset="0"
         style="stop-color:#7c8a93;stop-opacity:1" />
      <stop
         id="stop1849"
         offset="1"
         style="stop-color:#c9d0d3;stop-opacity:1" />
    </linearGradient>
    <linearGradient
       inkscape:collect="always"
       id="linearGradient1841">
      <stop
         style="stop-color:#576a73;stop-opacity:1"
         offset="0"
         id="stop1837" />
      <stop
         style="stop-color:#bdc8d0;stop-opacity:1"
         offset="1"
         id="stop1839" />
    </linearGradient>
    <linearGradient
       inkscape:collect="always"
       id="linearGradient1867">
      <stop
         style="stop-color:#c8cfd5;stop-opacity:1"
         offset="0"
         id="stop1863" />
      <stop
         style="stop-color:#c7cfd3;stop-opacity:0"
         offset="1"
         id="stop1865" />
    </linearGradient>
    <linearGradient
       inkscape:collect="always"
       id="linearGradient1875">
      <stop
         style="stop-color:#c8cfd5;stop-opacity:1"
         offset="0"
         id="stop1871" />
      <stop
         style="stop-color:#c8cfd4;stop-opacity:0"
         offset="1"
         id="stop1873" />
    </linearGradient>
    <linearGradient
       inkscape:collect="always"
       id="linearGradient1883">
      <stop
         style="stop-color:#c5cdd6;stop-opacity:1"
         offset="0"
         id="stop1879" />
      <stop
         style="stop-color:#c8ced3;stop-opacity:0;"
         offset="1"
         id="stop1881" />
    </linearGradient>
    <linearGradient
       id="linearGradient1072"
       inkscape:collect="always">
      <stop
         id="stop1068"
         offset="0"
         style="stop-color:#b4bec4;stop-opacity:1;" />
      <stop
         id="stop1070"
         offset="1"
         style="stop-color:#98a3aa;stop-opacity:0" />
    </linearGradient>
    <clipPath
       id="clipPath144"
       clipPathUnits="userSpaceOnUse">
      <path
         style="clip-rule:evenodd"
         id="path142"
         d="m 418.883,571.285 c 0,0 105.773,7.602 228.844,-51.164 97.488,-55.312 20.046,-105.785 20.046,-105.785 0,0 -94.714,-83.652 -304.89,-57.383 -102.324,13.828 -201.887,70.524 -201.887,70.524 0,0 143.113,-44.938 273.785,-35.954 134.125,17.286 172.848,69.836 112.699,118.227 -60.156,48.395 -118.226,58.078 -118.226,58.078 l -10.371,3.457" />
    </clipPath>
    <clipPath
       id="clipPath150"
       clipPathUnits="userSpaceOnUse">
      <path
         id="path148"
         d="M 0,0 H 850.395 V 850.391 H 0 Z" />
    </clipPath>
    <clipPath
       id="clipPath126"
       clipPathUnits="userSpaceOnUse">
      <path
         style="clip-rule:evenodd"
         id="path124"
         d="m 418.281,457.691 c 0,0 -105.781,-7.609 -228.847,51.161 -97.4809,55.312 -20.047,105.781 -20.047,105.781 0,0 94.718,83.66 304.898,57.383 C 576.609,658.188 676.16,601.5 676.16,601.5 c 0,0 -143.113,44.938 -273.781,35.945 C 268.254,620.168 229.535,567.617 289.688,519.223 349.836,470.824 407.91,461.148 407.91,461.148 l 10.371,-3.457" />
    </clipPath>
    <clipPath
       id="clipPath132"
       clipPathUnits="userSpaceOnUse">
      <path
         id="path130"
         d="M 0,0 H 850.395 V 850.391 H 0 Z" />
    </clipPath>
    <clipPath
       id="clipPath162"
       clipPathUnits="userSpaceOnUse">
      <path
         style="clip-rule:evenodd"
         id="path160"
         d="m 318.723,564.164 c 0,0 22.816,-98.176 200.496,-98.871 -36.641,102.324 -193.582,98.871 -193.582,98.871 h -6.914" />
    </clipPath>
    <clipPath
       id="clipPath168"
       clipPathUnits="userSpaceOnUse">
      <path
         id="path166"
         d="M 0,0 H 850.395 V 850.391 H 0 Z" />
    </clipPath>
    <clipPath
       id="clipPath642"
       clipPathUnits="userSpaceOnUse">
      <rect
         y="-382.3031"
         x="3.53426"
         height="112.65672"
         width="394.87924"
         id="rect644"
         style="opacity:0.4;fill:#b4b9bc;fill-opacity:1;stroke-width:0.473774;stroke-linecap:round;stroke-dashoffset:32.8063;paint-order:stroke fill markers" />
    </clipPath>
    <clipPath
       id="clipPath650"
       clipPathUnits="userSpaceOnUse">
      <rect
         y="-397.80652"
         x="-2.7821794"
         height="123.31338"
         width="419.68945"
         id="rect652"
         style="opacity:0.4;fill:#b4b9bc;fill-opacity:1;stroke-width:0.780129;stroke-linecap:round;stroke-dashoffset:32.8063;paint-order:stroke fill markers" />
    </clipPath>
    <clipPath
       id="clipPath672"
       clipPathUnits="userSpaceOnUse">
      <rect
         y="-260.61856"
         x="35.619789"
         height="166.08156"
         width="258.4136"
         id="rect674"
         style="opacity:0.4;fill:#b4b9bc;fill-opacity:1;stroke-width:0.79375;stroke-linecap:round;stroke-dashoffset:32.8063;paint-order:stroke fill markers" />
    </clipPath>
    <linearGradient
       gradientTransform="matrix(0.42426071,0,0,0.42426071,1265.8742,1423.7296)"
       gradientUnits="userSpaceOnUse"
       y2="-825.76221"
       x2="650.38928"
       y1="-423.91446"
       x1="810.66382"
       id="linearGradient1297-9-7"
       xlink:href="#linearGradient1295"
       inkscape:collect="always" />
    <filter
       height="1.0630575"
       y="-0.031528745"
       width="1.1012586"
       x="-0.050629314"
       id="filter1263-6-5"
       style="color-interpolation-filters:sRGB"
       inkscape:collect="always">
      <feGaussianBlur
         id="feGaussianBlur1265-6-2"
         stdDeviation="25.683251"
         inkscape:collect="always" />
    </filter>
    <linearGradient
       gradientTransform="matrix(0.11225232,0,0,0.11225232,1265.8742,1423.7296)"
       inkscape:collect="always"
       xlink:href="#linearGradient1857"
       id="linearGradient1859-4-6"
       x1="707.62555"
       y1="-1825.7184"
       x2="2189.5505"
       y2="-3698.6365"
       gradientUnits="userSpaceOnUse" />
    <filter
       height="1.0509273"
       y="-0.02546365"
       width="1.1643566"
       x="-0.08217831"
       id="filter1677-9-10"
       style="color-interpolation-filters:sRGB"
       inkscape:collect="always">
      <feGaussianBlur
         id="feGaussianBlur1679-7-1"
         stdDeviation="4.3624559"
         inkscape:collect="always" />
    </filter>
    <linearGradient
       gradientTransform="matrix(0.42426071,0,0,0.42426071,1265.8742,1423.7296)"
       inkscape:collect="always"
       xlink:href="#linearGradient1851"
       id="linearGradient1845-8-4"
       x1="754.50201"
       y1="-475.35281"
       x2="530.66425"
       y2="-683.12726"
       gradientUnits="userSpaceOnUse" />
    <linearGradient
       gradientTransform="matrix(0.42426071,0,0,0.42426071,1265.8742,1423.7296)"
       inkscape:collect="always"
       xlink:href="#linearGradient1841"
       id="linearGradient1843-8-4"
       x1="742.66272"
       y1="-486.88708"
       x2="530.66425"
       y2="-683.12726"
       gradientUnits="userSpaceOnUse" />
    <linearGradient
       gradientTransform="matrix(0.42426071,0,0,0.42426071,1265.8742,1423.7296)"
       inkscape:collect="always"
       xlink:href="#linearGradient1867"
       id="linearGradient1869-2-5"
       x1="275.37802"
       y1="-967.17249"
       x2="275.37802"
       y2="-479.90298"
       gradientUnits="userSpaceOnUse" />
    <linearGradient
       gradientTransform="matrix(0.42426071,0,0,0.42426071,1265.8742,1423.7296)"
       inkscape:collect="always"
       xlink:href="#linearGradient1875"
       id="linearGradient1877-0-1"
       x1="275.37802"
       y1="-967.17249"
       x2="567.49976"
       y2="-967.17249"
       gradientUnits="userSpaceOnUse" />
    <linearGradient
       gradientTransform="matrix(0.42426071,0,0,0.42426071,1265.8742,1423.7296)"
       inkscape:collect="always"
       xlink:href="#linearGradient1883"
       id="linearGradient1885-8-1"
       x1="392.87317"
       y1="-877.05457"
       x2="567.49969"
       y2="-877.05457"
       gradientUnits="userSpaceOnUse" />
    <linearGradient
       gradientTransform="matrix(0.42426071,0,0,0.42426071,1423.7296,-1265.8742)"
       gradientUnits="userSpaceOnUse"
       y2="-530.66425"
       x2="-683.12732"
       y1="-530.66425"
       x1="-781.61688"
       id="linearGradient1074-7-5"
       xlink:href="#linearGradient1072"
       inkscape:collect="always" />
  </defs>
  <sodipodi:namedview
     id="base"
     pagecolor="#ffffff"
     bordercolor="#666666"
     borderopacity="1.0"
     inkscape:pageopacity="0.0"
     inkscape:pageshadow="2"
     inkscape:zoom="0.11390613"
     inkscape:cx="4203.3977"
     inkscape:cy="2912.169"
     inkscape:document-units="mm"
     inkscape:current-layer="layer1"
     inkscape:document-rotation="0"
     showgrid="false"
     inkscape:window-width="1920"
     inkscape:window-height="986"
     inkscape:window-x="-11"
     inkscape:window-y="-11"
     inkscape:window-maximized="1"
     fit-margin-top="0"
     fit-margin-left="0"
     fit-margin-right="0"
     fit-margin-bottom="0" />
  <metadata
     id="metadata5">
    <rdf:RDF>
      <cc:Work
         rdf:about="">
        <dc:format>image/svg+xml</dc:format>
        <dc:type
           rdf:resource="http://purl.org/dc/dcmitype/StillImage" />
        <dc:title></dc:title>
      </cc:Work>
    </rdf:RDF>
  </metadata>
  <g
     inkscape:label="Calque 1"
     inkscape:groupmode="layer"
     id="layer1"
     transform="translate(-257.49817,-82.775257)">
    <path
       d="M 257.49817,82.775257 V 107.43559 1492.4674 H 2257.4982 V 82.775257 Z"
       style="color:#000000;font-style:normal;font-variant:normal;font-weight:normal;font-stretch:normal;font-size:medium;line-height:normal;font-family:sans-serif;font-variant-ligatures:normal;font-variant-position:normal;font-variant-caps:normal;font-variant-numeric:normal;font-variant-alternates:normal;font-variant-east-asian:normal;font-feature-settings:normal;font-variation-settings:normal;text-indent:0;text-align:start;text-decoration:none;text-decoration-line:none;text-decoration-style:solid;text-decoration-color:#000000;letter-spacing:normal;word-spacing:normal;text-transform:none;writing-mode:lr-tb;direction:ltr;text-orientation:mixed;dominant-baseline:auto;baseline-shift:baseline;text-anchor:start;white-space:normal;shape-padding:0;shape-margin:0;inline-size:0;clip-rule:nonzero;display:inline;overflow:visible;visibility:visible;isolation:auto;mix-blend-mode:normal;color-interpolation:sRGB;color-interpolation-filters:linearRGB;solid-color:#000000;solid-opacity:1;vector-effect:none;fill:#ffffff;fill-opacity:1;fill-rule:nonzero;stroke:none;stroke-width:49.3114;stroke-linecap:round;stroke-linejoin:miter;stroke-miterlimit:4;stroke-dasharray:none;stroke-dashoffset:32.8063;stroke-opacity:1;paint-order:stroke fill markers;color-rendering:auto;image-rendering:auto;shape-rendering:auto;text-rendering:auto;enable-background:accumulate;stop-color:#000000"
       id="path2448" />
    <path
       id="rect170-3-4"
       style="opacity:1;fill:#b4b9bc;fill-opacity:1;stroke-width:166.675;stroke-linecap:round;stroke-dashoffset:32.8063;paint-order:stroke fill markers"
       d="m 282.14889,774.84081 v 25.54847 H 2232.8376 v -25.54847 z" />
    <rect
       y="800.38922"
       x="282.14899"
       height="667.41272"
       width="1950.6862"
       id="rect110-2-4-2-5"
       style="opacity:1;fill:#192033;fill-opacity:1;stroke-width:79.5115;stroke-linecap:round;stroke-dashoffset:32.8063;paint-order:stroke fill markers" />
    <g
       transform="translate(-4.4792655)"
       id="g2479">
      <rect
         style="fill:#ffc323;fill-opacity:1;stroke-width:1.99542;stroke-linecap:round;stroke-dashoffset:32.8063;paint-order:stroke fill markers"
         id="rect1178-2-8"
         width="308.10016"
         height="310.75452"
         x="1330.4956"
         y="962.53369" />
      <path
         id="rect1736-1-1-5"
         style="fill:url(#linearGradient1297-9-7);fill-opacity:1;stroke:none;stroke-width:3.31019;stroke-linecap:round;stroke-miterlimit:4;stroke-dasharray:none;stroke-dashoffset:32.8063;stroke-opacity:1;paint-order:stroke fill markers"
         d="m 1526.5867,1093.1812 65.7648,-59.258 v 196.2092 h -65.7648 z"
         sodipodi:nodetypes="ccccc" />
      <path
         id="path1255-8-6"
         style="color:#000000;font-style:normal;font-variant:normal;font-weight:normal;font-stretch:normal;font-size:medium;line-height:normal;font-family:sans-serif;font-variant-ligatures:normal;font-variant-position:normal;font-variant-caps:normal;font-variant-numeric:normal;font-variant-alternates:normal;font-variant-east-asian:normal;font-feature-settings:normal;font-variation-settings:normal;text-indent:0;text-align:start;text-decoration:none;text-decoration-line:none;text-decoration-style:solid;text-decoration-color:#000000;letter-spacing:normal;word-spacing:normal;text-transform:none;writing-mode:lr-tb;direction:ltr;text-orientation:mixed;dominant-baseline:auto;baseline-shift:baseline;text-anchor:start;white-space:normal;shape-padding:0;shape-margin:0;inline-size:0;clip-rule:nonzero;display:inline;overflow:visible;visibility:visible;opacity:0.78;isolation:auto;mix-blend-mode:normal;color-interpolation:sRGB;color-interpolation-filters:linearRGB;solid-color:#000000;solid-opacity:1;vector-effect:none;fill:#000000;fill-opacity:1;fill-rule:nonzero;stroke:none;stroke-width:113.386;stroke-linecap:round;stroke-linejoin:miter;stroke-miterlimit:4;stroke-dasharray:none;stroke-dashoffset:32.8063;stroke-opacity:1;paint-order:stroke fill markers;filter:url(#filter1263-6-5);color-rendering:auto;image-rendering:auto;shape-rendering:auto;text-rendering:auto;enable-background:accumulate;stop-color:#000000"
         d="m 984.10156,-3712.1484 v 56.6933 1898.3418 h 557.46684 v -768.0937 h 520.7851 v -485.625 h -520.7851 v -214.1934 h 660.0058 v -487.123 z"
         transform="matrix(0.11059709,0,0,0.11007508,1269.5511,1417.6726)" />
      <path
         sodipodi:nodetypes="ccccccccccccc"
         d="m 1700.203,1039.1036 v 22.5266 h 3.445 c 2.8889,-5.7543 8.5535,-9.3097 15.4844,-9.3097 h 30.681 v 114.3216 h 24.3012 v -114.3216 h 30.6967 c 6.9385,0 12.6024,3.5554 15.4757,9.3097 h 3.445 v -22.5266 z"
         style="fill:#ffffff;stroke-width:3.88283"
         id="path275-3-6-1" />
      <path
         sodipodi:nodetypes="ssssccscccssccs"
         d="m 1844.8514,1073.2706 c -0.7213,0 -1.4545,0.01 -2.2033,0.018 -26.5366,0.7313 -42.5496,20.6995 -42.5496,46.2341 0,27.3283 17.4187,46.5296 42.6463,46.5296 18.9433,0 30.9947,-4.9011 38.4893,-9.8685 l -4.9881,-6.3288 c -4.7585,2.2059 -10.8317,3.9873 -19.894,3.9873 -14.6695,0 -34.0177,-10.035 -34.0177,-29.9555 l 0.1052,-7.0873 h 58.3207 c -0.2377,-23.2066 -5.889,-43.4223 -35.9036,-43.5377 z m -2.5052,12.4519 c 9.3776,0.01 18.8367,7.1722 19.6244,22.1298 h -38.7767 c -0.1171,-14.5283 9.4771,-22.1381 19.1523,-22.1298 z"
         style="fill:#ffffff;stroke:none;stroke-width:32.3291;stroke-linecap:round;stroke-miterlimit:4;stroke-dasharray:none;stroke-dashoffset:32.8063;stroke-opacity:1;paint-order:stroke fill markers"
         id="path1552-9-73" />
      <path
         d="m 2047.1974,1073.0571 c -10.6751,-0.01 -22.947,5.4142 -32.626,17.7566 v -7.6886 -9.7507 h -22.1465 -7.4003 v 9.7507 h 7.4003 v 83.6449 h 22.1465 v -64.0072 c 14.3764,-23.6025 34.9406,-15.034 34.8489,-5.464 v 69.4712 h 22.1464 v -63.7323 c 14.3836,-23.9447 35.1083,-15.346 35.0161,-5.7389 v 69.4712 h 22.1464 7.4004 v -9.7508 h -7.4004 v -60.6398 c 0.117,-14.5358 -10.8474,-23.3002 -24.3692,-23.3223 -10.8844,-0.018 -23.4282,5.63 -33.1917,18.4906 -2.0745,-11.6236 -12.0216,-18.471 -23.9709,-18.4906 z"
         style="fill:#ffffff;stroke:none;stroke-width:2.65716;stroke-linecap:round;stroke-miterlimit:4;stroke-dasharray:none;stroke-dashoffset:32.8063;stroke-opacity:1;paint-order:stroke fill markers"
         id="rect1582-4-1" />
      <path
         d="m 1930.7626,1073.1335 c -10.9738,0 -21.3695,1.2686 -31.5191,8.9348 v 19.3074 c 9.2466,-9.468 17.5199,-16.4769 28.748,-16.4769 11.0843,0 17.2995,11.2566 17.2995,21.8231 -27.6638,0 -52.0575,5.6409 -52.1484,32.8038 0,24.6081 24.9977,37.7611 52.1484,16.6326 l 1.5043,10.2744 h 25.3891 v -5.9542 l -7.5049,-3.3093 v -60.4759 c 0,-16.9893 -15.2473,-23.3075 -31.3826,-23.5406 -0.8484,-0.01 -1.6928,-0.018 -2.534,-0.018 z m 14.5284,41.6176 v 31.4233 c -13.7825,14.1361 -30.9635,11.3737 -33.1194,-5.4489 -1.238,-13.9599 11.9139,-25.6437 33.1194,-25.9744 z"
         style="fill:#ffffff;stroke:none;stroke-width:2.80786;stroke-linecap:round;stroke-miterlimit:4;stroke-dasharray:none;stroke-dashoffset:32.8063;stroke-opacity:1;paint-order:stroke fill markers"
         id="rect1660-0-8" />
      <g
         style="fill:#ffffff"
         id="g273-4-9"
         transform="matrix(3.7626678,0,0,3.7626678,183.13238,59.098848)">
        <path
           style="fill:#ffffff"
           d="m 256.24,267.44 h 0.887 c 0.744,-1.482 2.203,-2.398 3.988,-2.398 h 6.287 v 29.146 h 9.488 v -29.146 h 6.291 c 1.787,0 3.246,0.916 3.986,2.398 h 0.887 v -6.348 H 256.24 Z"
           id="path275-1-8"
           inkscape:connector-curvature="0" />
        <path
           style="fill:#ffffff"
           d="M 256.666,290.206 H 246.52 v -29.113 h -11.49 v 0.885 c 1.244,0.814 2.008,2.234 2.008,3.984 v 28.227 h 24.471 v -6.359 h -0.855 c -0.742,1.485 -2.199,2.376 -3.988,2.376 z"
           id="path277-0-2"
           inkscape:connector-curvature="0" />
        <path
           style="fill:#ffffff"
           d="m 222.41,261.978 c 1.248,0.814 1.98,2.234 1.98,3.984 v 12.713 c 0,6.412 -2.203,9.916 -8.033,9.916 -5.842,0 -8.008,-3.504 -8.008,-9.916 v -17.582 h -11.49 v 0.885 c 1.244,0.814 2.004,2.234 2.004,3.984 v 14.426 c 0,8.047 5.027,14.457 14.889,14.457 10.898,0 15.412,-4.912 15.412,-15.672 v -18.08 h -6.754 z"
           id="path279-8-3"
           inkscape:connector-curvature="0" />
        <path
           style="fill:#ffffff"
           d="m 194.975,290.829 -12.744,-29.736 h -7.377 l -14.395,33.096 h 5.568 l 3.096,-7.576 h 13.967 l 2.93,7.576 h 11.43 v -0.891 c -1.048,-0.406 -1.983,-1.328 -2.475,-2.469 z m -24.209,-8.205 5.505,-12.873 5.236,12.873 z"
           id="path281-4-8"
           inkscape:connector-curvature="0" />
        <path
           style="fill:#ffffff"
           d="m 150.177,261.978 c 1.256,0.814 1.985,2.234 1.985,3.984 v 19.525 L 137.17,261.092 h -12.778 v 0.885 c 1.247,0.814 2.009,2.234 2.009,3.984 v 28.227 h 4.742 v -24.373 l 15.02,24.373 h 10.772 v -33.096 h -6.758 z"
           id="path283-8-95"
           inkscape:connector-curvature="0" />
        <path
           style="fill:#ffffff"
           d="m 114.94,290.206 h -11.129 v -11.104 h 12.579 v -3.99 h -12.579 v -10.07 h 10.732 c 1.753,0 3.18,0.758 3.984,2.008 h 0.86 v -5.957 h -27.04 v 0.885 c 1.245,0.814 1.976,2.234 1.976,3.984 v 28.227 h 25.495 v -6.129 h -0.891 c -0.74,1.386 -2.03,2.146 -3.987,2.146 z"
           id="path285-8-43"
           inkscape:connector-curvature="0" />
        <path
           style="fill:#ffffff"
           d="m 87.405,291.292 -8.136,-12.223 c 4.049,-1.277 7.215,-4.672 7.215,-9.021 0,-5.736 -4.352,-8.955 -11.066,-8.955 H 54.401 v 0.885 c 1.252,0.814 2.011,2.234 2.011,3.984 v 28.227 h 9.484 v -14.063 h 3.558 l 7.837,14.063 H 89.94 v -0.891 c -1.007,-0.373 -1.892,-1.047 -2.535,-2.006 z M 70.014,276.468 h -4.117 v -11.689 h 4.117 c 3.443,0 6.423,1.807 6.423,5.73 0.001,3.951 -2.745,5.959 -6.423,5.959 z"
           id="path287-2-1"
           inkscape:connector-curvature="0" />
      </g>
      <path
         sodipodi:nodetypes="ccccccccccc"
         d="m 1382.7065,1013.3963 v 206.7292 h 49.8485 v -86.2201 h 58.4592 v -41.7852 h -58.4592 v -36.7713 h 74.0871 v -41.9526 z"
         style="fill:url(#linearGradient1859-4-6);fill-opacity:1;stroke:none;stroke-width:2.65716;stroke-linecap:round;stroke-miterlimit:4;stroke-dasharray:none;stroke-dashoffset:32.8063;stroke-opacity:1;paint-order:stroke fill markers"
         id="rect1697-6-7" />
      <path
         sodipodi:nodetypes="ccccc"
         d="M 632.70302,-769.66296 757.67705,-881.8115 v 410.16288 H 632.70302 Z"
         style="opacity:0.78;fill:#000000;fill-opacity:1;stroke:none;stroke-width:7.00529;stroke-linecap:round;stroke-miterlimit:4;stroke-dasharray:none;stroke-dashoffset:32.8063;stroke-opacity:1;paint-order:stroke fill markers;filter:url(#filter1677-9-10)"
         id="rect1736-7-0-3-9"
         transform="matrix(0.43718149,-0.00357183,0.00357183,0.43718149,1260.2519,1433.2916)" />
      <path
         id="rect1736-7-2-6"
         style="fill:url(#linearGradient1845-8-4);fill-opacity:1;stroke:none;stroke-width:2.97206;stroke-linecap:round;stroke-miterlimit:4;stroke-dasharray:none;stroke-dashoffset:32.8063;stroke-opacity:1;paint-order:stroke fill markers"
         d="m 1532.9583,1095.6203 53.0216,-47.5804 v 174.0162 h -53.0216 z"
         sodipodi:nodetypes="ccccc" />
      <path
         sodipodi:nodetypes="ccccc"
         d="m 1537.9813,1098.0875 42.9757,-37.5676 v 156.6425 h -42.9757 z"
         style="fill:url(#linearGradient1843-8-4);fill-opacity:1;stroke:none;stroke-width:2.67271;stroke-linecap:round;stroke-miterlimit:4;stroke-dasharray:none;stroke-dashoffset:32.8063;stroke-opacity:1;paint-order:stroke fill markers"
         id="rect1736-8-0" />
      <path
         d="m 1382.7065,1013.3963 h 3.7174 v 206.7292 h -3.7174 z"
         style="fill:url(#linearGradient1869-2-5);fill-opacity:1;stroke:none;stroke-width:0.812759;stroke-linecap:round;stroke-miterlimit:4;stroke-dasharray:none;stroke-dashoffset:32.8063;stroke-opacity:1;paint-order:stroke fill markers"
         id="rect1787-5-99" />
      <rect
         y="1013.3964"
         x="1382.7061"
         height="4.5127788"
         width="123.93577"
         id="rect1790-4-6"
         style="fill:url(#linearGradient1877-0-1);fill-opacity:1;stroke:none;stroke-width:0.871483;stroke-linecap:round;stroke-miterlimit:4;stroke-dasharray:none;stroke-dashoffset:32.8063;stroke-opacity:1;paint-order:stroke fill markers" />
      <rect
         style="fill:url(#linearGradient1885-8-1);fill-opacity:1;stroke:none;stroke-width:0.611686;stroke-linecap:round;stroke-miterlimit:4;stroke-dasharray:none;stroke-dashoffset:32.8063;stroke-opacity:1;paint-order:stroke fill markers"
         id="rect1790-1-9-50"
         width="74.087189"
         height="3.7190661"
         x="1432.5546"
         y="1051.6296" />
      <rect
         y="1092.1202"
         x="1432.5546"
         height="3.7190681"
         width="58.459347"
         id="rect1790-1-3-9-7"
         style="fill:#b4bec4;fill-opacity:1;stroke:none;stroke-width:0.543357;stroke-linecap:round;stroke-miterlimit:4;stroke-dasharray:none;stroke-dashoffset:32.8063;stroke-opacity:1;paint-order:stroke fill markers" />
      <rect
         transform="rotate(90)"
         style="fill:url(#linearGradient1074-7-5);fill-opacity:1;stroke:none;stroke-width:0.459374;stroke-linecap:round;stroke-miterlimit:4;stroke-dasharray:none;stroke-dashoffset:32.8063;stroke-opacity:1;paint-order:stroke fill markers"
         id="rect1790-1-3-8-0-1"
         width="41.785271"
         height="3.7190716"
         x="1092.1202"
         y="-1491.0143" />
    </g>
    <rect
       style="opacity:1;fill:#1f8ac2;fill-opacity:1;stroke-width:79.5115;stroke-linecap:round;stroke-dashoffset:32.8063;paint-order:stroke fill markers"
       id="rect110-2-44-8"
       width="1950.6862"
       height="667.41272"
       x="282.14899"
       y="107.42809" />
    <path
       id="path682-1-3-7"
       style="opacity:1;fill:#111624;fill-opacity:1;stroke-width:0.432057"
       d="m 1317.2928,380.15813 -0.2834,12.63728 c -0.2011,8.95284 -0.4699,123.38138 -0.2971,127.02424 0.027,0.52931 68.3019,0.39584 71.8694,-0.1417 21.674,-3.25963 39.6288,-15.64716 48.6308,-33.55137 11.2986,-22.47194 9.8152,-55.35431 -3.4203,-75.72417 -8.88,-13.66666 -22.9625,-23.13135 -41.0911,-27.61773 -10.0362,-2.48367 -12.5274,-2.62665 -45.4704,-2.62665 z m 41.1998,14.26701 c 3.0006,-0.0274 6.7485,0.13713 9.0754,0.45344 23.902,3.2567 36.6567,18.54011 38.37,45.98552 0.3986,6.38889 -0.4269,20.84085 -1.4834,26.03024 -2.2019,10.80443 -6.5125,19.21716 -12.9633,25.30282 -5.2201,4.92419 -11.0493,8.02128 -19.0291,10.10983 -3.353,0.87762 -5.5079,1.12052 -11.7728,1.30857 l -7.6721,0.22672 V 449.4007 394.95427 l 1.351,-0.26969 c 0.7926,-0.15906 2.324,-0.24317 4.1243,-0.25963 z" />
    <path
       style="opacity:1;fill:#111624;fill-opacity:1;stroke-width:0.432057"
       d="m 1212.1683,380.59136 v 69.34496 69.34496 h 44.9339 44.9339 v -8.42498 -8.42516 h -26.7875 -26.7876 V 441.5107 380.59072 h -18.1463 z"
       id="path686-2-9-5" />
    <path
       style="opacity:1;fill:#111624;fill-opacity:1;stroke-width:0.432057"
       d="m 1147.792,380.59136 v 69.34496 69.34496 h 17.9302 17.9305 v -69.34542 -69.34514 h -17.9305 z"
       id="path684-2-2-9" />
    <path
       style="opacity:1;fill:#111624;fill-opacity:1;stroke-width:0.432057"
       d="m 955.84496,380.15072 0.10879,69.84548 0.10878,69.84457 6.62769,-0.0933 c 3.64496,-0.0457 6.90075,-0.19655 7.23507,-0.32454 0.51743,-0.19838 0.62439,-8.08773 0.71764,-52.79028 l 0.10879,-52.55717 6.73053,16.20208 c 3.70155,8.91123 13.71109,33.06849 22.24424,53.68299 l 15.51521,37.48082 h 12.1424 12.1422 l 22.4282,-55.57573 22.4281,-55.5749 0.1087,55.14286 0.1088,55.14377 h 16.2005 16.2007 V 450.58461 380.5914 h -20.2437 -20.2436 l -19.7681,48.9304 c -10.8725,26.91179 -19.9119,49.19258 -20.0872,49.51337 -0.2002,0.36659 -1.429,-2.04303 -3.3021,-6.47657 -1.6406,-3.88311 -11.0667,-26.21244 -20.9471,-49.62143 l -17.96494,-42.56179 -19.30163,-0.11245 z"
       id="path586-2-7-3" />
    <path
       style="opacity:1;fill:#111624;fill-opacity:1;stroke-width:0.432057"
       d="m 1772.8262,450.70662 c -14.5292,-38.19188 -26.3781,-69.46975 -26.3312,-69.50641 0.046,-0.0366 8.9266,-0.13987 19.7325,-0.22946 l 19.6471,-0.16273 19.7237,55.49281 c 10.848,30.5211 19.8939,55.75463 20.1021,56.07469 0.2505,0.38579 6.5834,-18.38699 18.792,-55.70883 l 18.4138,-56.29071 11.7202,-0.11519 11.7201,-0.11519 -1.214,3.35535 c -0.6674,1.84547 -11.9921,33.34476 -25.1653,69.99815 l -23.9512,66.6428 -18.3866,0.002 -18.3868,0.002 z"
       id="path698-9-9-6" />
    <path
       style="opacity:1;fill:#111624;fill-opacity:1;stroke-width:0.432057"
       d="m 1642.5288,519.86033 c -0.16,-0.15907 -0.2898,-31.75462 -0.2898,-70.21125 V 379.728 h 46.2299 46.2301 v 9.07314 9.07332 h -28.7318 -28.7317 v 20.73856 20.73873 h 26.1394 26.1395 v 8.42507 8.42517 h -26.3555 -26.3555 v 22.89585 22.89586 l 28.6238,0.11153 28.6237,0.11062 v 8.85739 8.85712 l -45.616,0.1097 c -25.0888,0.064 -45.7464,-0.0183 -45.906,-0.1801 z"
       id="path696-4-6-0" />
    <path
       style="opacity:1;fill:#111624;fill-opacity:1;stroke-width:0.432057"
       d="m 2065.3832,474.75984 -35.806,-45.8185 -0.1097,45.60247 -0.1097,45.60248 h -10.1514 -10.1514 v -69.7771 -69.7771 l 13.5018,0.0274 13.5018,0.0274 35.8607,45.63502 35.8606,45.63484 0.1097,-45.6597 0.1097,-45.65989 h 9.7193 9.7193 v 69.99321 69.99303 h -13.1244 -13.1245 l -35.8059,-45.81822 z"
       id="path694-9-2-2" />
    <path
       style="opacity:1;fill:#111624;fill-opacity:1;stroke-width:0.432057"
       d="m 1900.6084,450.58521 v -69.99312 h 46.014 46.014 v 8.42507 8.42517 h -28.5157 -28.5157 v 21.81894 21.81867 h 26.5715 26.5714 v 7.99302 7.99312 h -26.5714 -26.5715 v 22.89896 22.89897 h 28.2997 28.2997 v 8.85721 8.85711 h -45.798 -45.798 z"
       id="path692-2-0-7" />
    <path
       style="opacity:1;fill:#111624;fill-opacity:1;stroke-width:0.432057"
       d="m 1562.5244,525.26017 c -11.769,-0.71033 -23.0983,-4.87628 -31.438,-11.5601 -4.7442,-3.80229 -21.9209,-23.43148 -21.9209,-25.05087 0,-0.32088 18.776,-13.8688 19.2207,-13.8688 0.1179,0 1.2665,2.09743 2.5521,4.66109 7.9167,15.78529 18.4642,25.60103 29.5979,27.54478 2.8199,0.49274 4.6479,0.5284 9.0269,0.17644 13.4215,-1.07692 20.4921,-4.58036 23.9351,-11.85996 1.3065,-2.76258 1.4304,-3.37984 1.4304,-7.12893 0,-3.44905 -0.1646,-4.43784 -1.0275,-6.19162 -1.3533,-2.74878 -4.5529,-5.8956 -8.1569,-8.02237 -3.9567,-2.33493 -16.3747,-5.89963 -29.4846,-8.46365 -3.2081,-0.62714 -7.291,-1.62872 -9.0732,-2.22495 -10.439,-3.4922 -20.0676,-10.06833 -25.7821,-17.6081 -4.363,-5.75692 -7.5085,-14.2736 -8.1554,-22.08177 -0.6729,-8.11992 2.1698,-19.88379 6.3858,-26.42792 2.0724,-3.21666 10.0638,-10.89868 14.201,-13.65112 9.1728,-6.10239 20.8465,-9.81784 30.849,-9.81857 7.0658,-4.6e-4 22.3855,3.10056 29.8119,6.03465 7.0848,2.79906 13.2071,6.77039 19.4712,12.62998 4.2284,3.95542 8.8284,10.52587 8.8284,12.60986 0,0.39584 -3.8188,2.50149 -10.2208,5.6356 -5.6215,2.7519 -10.2483,4.9529 -10.2818,4.89101 -0.037,-0.064 -0.3108,-0.6957 -0.6171,-1.40868 -1.2082,-2.81725 -5.5785,-8.77045 -8.7083,-11.86251 -7.6946,-7.60175 -19.2031,-11.86032 -29.9688,-11.08948 -11.7101,0.83832 -19.8429,4.46033 -22.3344,9.94656 -1.4287,3.146 -0.6957,9.38159 1.5212,12.94308 0.3172,0.50921 0.7094,1.49644 0.8722,2.19314 0.1709,0.73135 1.4269,2.37625 2.9744,3.89344 5.3149,5.21133 14.8826,8.66962 28.8052,10.41188 6.3969,0.80083 12.5924,2.03471 17.327,3.45188 17.3421,5.19068 29.7474,18.54999 32.3691,34.85829 0.809,5.0317 0.3391,16.40421 -0.8713,21.07955 -1.0459,4.04081 -3.9162,10.50677 -6.0238,13.57022 -7.0289,10.21606 -20.8441,18.09572 -36.358,20.73727 -5.7376,0.9769 -13.1217,1.39039 -18.7565,1.05031 z"
       id="path646-9-0-0" />
    <path
       style="opacity:1;fill:#111624;fill-opacity:1;stroke-width:0.511492"
       d="m 632.43297,591.99485 c -17.17962,-0.84929 -36.53052,-2.64128 -49.61512,-4.59554 -42.59553,-6.36266 -90.7773,-21.96357 -140.34497,-45.44277 -12.04389,-5.70499 -26.43569,-13.1058 -26.87816,-13.82171 -0.14078,-0.22671 3.2461,0.60154 7.52643,1.84319 34.11944,9.89582 83.06172,19.76906 121.07881,24.42539 28.07665,3.43881 46.70864,4.58904 73.91115,4.5628 24.82552,-0.0183 29.48249,-0.3291 45.52934,-2.98217 40.18152,-6.64359 69.21432,-16.90262 86.96988,-30.73137 19.63695,-15.29419 22.73971,-33.71418 8.88975,-52.77611 -3.03282,-4.17382 -11.56449,-12.44851 -17.88153,-17.34244 -27.89382,-21.60959 -59.87132,-37.60414 -91.02751,-45.53025 -4.92318,-1.25235 -10.44735,-2.77831 -12.27591,-3.39082 l -3.32472,-1.11366 3.58042,-0.46532 c 4.20792,-0.54578 27.65896,0.32179 39.64105,1.46745 44.61141,4.26551 89.50593,15.58006 131.4544,33.12983 18.97407,7.93809 26.26418,11.84807 36.98844,19.83854 29.65701,22.09667 33.89071,46.86213 12.01591,70.28548 -6.10532,6.53745 -19.36919,16.3925 -31.34808,23.29151 -33.66408,19.38812 -78.85133,32.73226 -127.11638,37.5386 -19.44818,1.93671 -49.14651,2.7295 -67.7732,1.80909 z m -18.92535,-89.83806 c -52.70572,-2.12686 -107.13049,-14.6038 -157.24521,-36.04875 -20.84808,-8.9212 -31.86286,-15.65703 -42.93186,-26.25403 -21.3666,-20.4558 -21.85331,-42.88258 -1.37786,-63.49617 14.7721,-14.87165 41.9491,-30.47567 71.19226,-40.87612 40.17759,-14.28904 81.1784,-20.835 130.87416,-20.89433 41.67749,-0.0457 75.61062,3.74205 109.20779,12.20342 29.32306,7.385 60.40977,18.42483 92.83312,32.96829 9.80138,4.39624 35.28037,17.06571 37.08343,18.43965 0.98394,0.74963 -0.54943,0.44886 -6.64936,-1.30519 -44.40635,-12.76738 -99.23006,-22.95976 -145.52074,-27.05395 -31.01293,-2.74284 -67.87275,-2.96362 -85.53241,-0.51195 -76.81068,10.66291 -120.11699,36.8227 -113.43408,68.52146 2.34306,11.11398 11.31655,22.65296 26.97862,34.69172 27.54386,21.17179 59.80951,37.1775 90.4043,44.84599 4.3605,1.09291 9.53362,2.5376 11.49565,3.21045 l 3.56753,1.22336 -2.80025,0.33643 c -2.65343,0.31905 -10.25464,0.31905 -18.14509,2.7e-4 z m 86.69855,-7.17108 C 657.8348,492.48824 621.62708,482.40254 595.03771,465.69081 572.98959,451.83326 555.25177,430.89642 549.56752,412.0198 l -0.36933,-1.22566 12.71783,0.30169 c 6.99473,0.16638 16.05525,0.66827 20.13436,1.1164 71.82123,7.89165 119.37531,35.44282 137.29524,79.54429 0.72587,1.78706 1.32027,3.32454 1.32027,3.41678 0,0.20021 -16.44159,0.0457 -20.45991,-0.18741 z"
       id="path668-9-0-8"
       sodipodi:nodetypes="ssssssssssssscsssssssssssssssssssssssscssssscscssss" />
    <path
       d="m 1307.9082,370.06978 -0.2834,12.6372 c -0.2011,8.95292 -0.4699,123.38146 -0.2971,127.02432 0.027,0.52932 68.3018,0.39585 71.8693,-0.1417 21.674,-3.25954 39.6287,-15.64707 48.6307,-33.55127 11.2987,-22.47195 9.8153,-55.35422 -3.4202,-75.72417 -8.88,-13.66657 -22.9625,-23.13144 -41.0911,-27.61773 -10.0362,-2.48367 -12.5274,-2.62656 -45.4704,-2.62656 z m 41.1998,14.26701 c 3.0005,-0.0274 6.7484,0.13713 9.0753,0.45344 23.902,3.25661 36.6567,18.54011 38.37,45.98543 0.3986,6.38899 -0.4269,20.84094 -1.4834,26.03033 -2.2019,10.80443 -6.5125,19.21716 -12.9633,25.30283 -5.22,4.92418 -11.0493,8.02127 -19.0291,10.10973 -3.353,0.87763 -5.5078,1.12062 -11.7728,1.30867 l -7.6721,0.22671 v -54.44158 -54.44643 l 1.3511,-0.26968 c 0.7926,-0.15907 2.324,-0.24318 4.1243,-0.25963 z"
       style="fill:#ffffff;stroke-width:0.432057"
       id="path682-15-7" />
    <path
       id="path686-6-7"
       d="m 1202.7838,370.50292 v 69.34496 69.34496 h 44.9339 44.9337 v -8.42498 -8.42516 h -26.7875 -26.7875 v -60.92044 -60.91998 h -18.1463 z"
       style="fill:#ffffff;stroke-width:0.432057" />
    <path
       id="path684-8-6"
       d="m 1138.4074,370.50292 v 69.34496 69.34496 h 17.9302 17.9305 v -69.34541 -69.34515 h -17.9305 z"
       style="fill:#ffffff;stroke-width:0.432057" />
    <path
       id="path586-1-5"
       d="m 946.46026,370.06228 0.10879,69.84548 0.10879,69.84457 6.62768,-0.0932 c 3.64506,-0.0457 6.90094,-0.19655 7.23517,-0.32454 0.51743,-0.19838 0.62439,-8.08773 0.71764,-52.79028 l 0.10878,-52.55717 6.73054,16.20208 c 3.70145,8.91124 13.711,33.06849 22.24422,53.68299 l 15.51513,37.48082 h 12.1424 12.1423 l 22.4281,-55.57572 22.4281,-55.57491 0.1087,55.14286 0.1088,55.14377 h 16.2006 16.2005 v -69.99294 -69.99321 h -20.2437 -20.2435 l -19.7682,48.9304 c -10.8723,26.91179 -19.9117,49.19258 -20.0871,49.51337 -0.2002,0.36659 -1.4291,-2.04303 -3.3021,-6.47657 -1.6405,-3.88311 -11.0667,-26.21244 -20.947,-49.62143 l -17.96503,-42.56179 -19.30163,-0.11245 z"
       style="fill:#ffffff;stroke-width:0.432057" />
    <path
       id="path698-7-4"
       d="m 1763.4415,440.61818 c -14.5291,-38.19179 -26.3781,-69.46966 -26.3311,-69.50632 0.046,-0.0366 8.9265,-0.13987 19.7324,-0.22946 l 19.6471,-0.16272 19.7237,55.4928 c 10.848,30.52102 19.8939,55.75464 20.1021,56.07469 0.2505,0.38579 6.5834,-18.38698 18.7921,-55.70892 l 18.4137,-56.29062 11.7203,-0.11519 11.7201,-0.11519 -1.2141,3.35535 c -0.6674,1.84547 -11.9921,33.34467 -25.1653,69.99815 l -23.9511,66.6428 -18.3867,0.002 -18.3868,0.002 z"
       style="fill:#ffffff;stroke-width:0.432057" />
    <path
       id="path696-6-1"
       d="m 1633.1441,509.7718 c -0.1591,-0.15998 -0.2898,-31.75444 -0.2898,-70.21106 v -69.92118 h 46.23 46.23 v 9.07323 9.07323 h -28.7318 -28.7316 v 20.73865 20.73874 h 26.1394 26.1394 v 8.42507 8.42507 h -26.3555 -26.3554 v 22.89595 22.89585 l 28.6237,0.11062 28.6237,0.11062 v 8.85721 8.85711 l -45.616,0.10971 c -25.0887,0.064 -45.7464,-0.0183 -45.906,-0.1801 z"
       style="fill:#ffffff;stroke-width:0.432057" />
    <path
       id="path694-0-8"
       d="m 2055.9986,464.67149 -35.8061,-45.8185 -0.1097,45.60248 -0.1097,45.60238 h -10.1513 -10.1513 v -69.77701 -69.7771 l 13.5017,0.0274 13.5018,0.0274 35.8607,45.63492 35.8606,45.63493 0.1097,-45.65979 0.1097,-45.65989 h 9.7194 9.7192 v 69.99303 69.99321 h -13.1244 -13.1244 l -35.8059,-45.81849 z"
       style="fill:#ffffff;stroke-width:0.432057" />
    <path
       id="path692-8-5"
       d="m 1891.2237,440.49687 v -69.99313 h 46.0141 46.0139 v 8.42508 8.42507 h -28.5156 -28.5158 v 21.81885 21.81885 h 26.5715 26.5714 v 7.99302 7.99312 h -26.5714 -26.5715 v 22.89897 22.89896 h 28.2997 28.2997 v 8.85712 8.85721 h -45.7979 -45.7981 z"
       style="fill:#ffffff;stroke-width:0.432057" />
    <path
       id="path646-0-9"
       d="m 1553.1398,515.17173 c -11.7691,-0.71032 -23.0983,-4.87619 -31.438,-11.56001 -4.7443,-3.80229 -21.921,-23.43157 -21.921,-25.05087 0,-0.32088 18.776,-13.86888 19.2208,-13.86888 0.1179,0 1.2664,2.09751 2.552,4.66108 7.9167,15.7853 18.4642,25.60112 29.598,27.54487 2.8198,0.49183 4.6479,0.5284 9.0269,0.17644 13.4215,-1.07692 20.492,-4.58036 23.935,-11.86005 1.3066,-2.76249 1.4304,-3.37984 1.4304,-7.12893 0,-3.44896 -0.1636,-4.43784 -1.0275,-6.19162 -1.3532,-2.74869 -4.5529,-5.8956 -8.1568,-8.02228 -3.9568,-2.33493 -16.3747,-5.89953 -29.4847,-8.46374 -3.2081,-0.62713 -7.2909,-1.62863 -9.0732,-2.22486 -10.439,-3.4922 -20.0676,-10.06824 -25.782,-17.6081 -4.3631,-5.75692 -7.5086,-14.27359 -8.1554,-22.08177 -0.6729,-8.12001 2.1698,-19.88388 6.3857,-26.42791 2.0724,-3.21676 10.0638,-10.8986 14.2011,-13.65104 9.1728,-6.10257 20.8465,-9.81802 30.8489,-9.81866 7.0658,-4.5e-4 22.3855,3.10057 29.8119,6.03456 7.0848,2.79916 13.2072,6.77039 19.4712,12.63007 4.2284,3.95551 8.8285,10.52588 8.8285,12.60977 0,0.39584 -3.8188,2.50158 -10.2208,5.6357 -5.6216,2.75189 -10.2484,4.9528 -10.2819,4.89091 -0.037,-0.064 -0.3108,-0.6957 -0.6171,-1.40868 -1.2083,-2.81716 -5.5785,-8.77036 -8.7084,-11.86251 -7.6945,-7.60175 -19.203,-11.86023 -29.9688,-11.08938 -11.71,0.83831 -19.8428,4.46033 -22.3344,9.94655 -1.4287,3.14591 -0.6957,9.3815 1.5213,12.94309 0.3172,0.5092 0.7094,1.49643 0.8722,2.19314 0.1709,0.73135 1.4269,2.37616 2.9743,3.89343 5.3149,5.21125 14.8826,8.66962 28.8052,10.41179 6.397,0.80083 12.5925,2.0348 17.3271,3.45189 17.3421,5.19076 29.7473,18.54998 32.3691,34.85838 0.809,5.03169 0.3382,16.4042 -0.8713,21.07954 -1.0458,4.04081 -3.9161,10.50677 -6.0237,13.57013 -7.029,10.21615 -20.8442,18.09582 -36.3581,20.73736 -5.7376,0.97691 -13.1216,1.39039 -18.7564,1.05032 z"
       style="fill:#ffffff;stroke-width:0.432057" />
    <path
       sodipodi:nodetypes="ssssssssssssscsssssssssssssssssssssssscssssscscssss"
       id="path668-0-8"
       d="m 623.04837,581.90641 c -17.17962,-0.84928 -36.53053,-2.64128 -49.61513,-4.59554 -42.59552,-6.36266 -90.77729,-21.96356 -140.34497,-45.44276 -12.04389,-5.705 -26.43568,-13.10581 -26.87815,-13.82171 -0.14079,-0.22672 3.2461,0.60153 7.52642,1.84318 34.11945,9.89582 83.06173,19.76906 121.07881,24.42539 28.07666,3.43881 46.70864,4.58895 73.91115,4.56281 24.82553,-0.0183 29.4825,-0.32911 45.52934,-2.98218 40.18152,-6.64359 69.21433,-16.90262 86.96988,-30.73137 19.63696,-15.29419 22.73971,-33.71418 8.88976,-52.77611 -3.03283,-4.17382 -11.56449,-12.44851 -17.88163,-17.34243 -27.89372,-21.6096 -59.87122,-37.60415 -91.02741,-45.53026 -4.92318,-1.25235 -10.44735,-2.77831 -12.27591,-3.39082 l -3.32472,-1.11366 3.58042,-0.46532 c 4.20792,-0.54577 27.65896,0.32179 39.64105,1.46745 44.6114,4.26552 89.50593,15.58006 131.45439,33.12984 18.97408,7.93808 26.26419,11.84806 36.98844,19.83853 29.65702,22.09667 33.89071,46.86214 12.01592,70.28548 -6.10532,6.53745 -19.36919,16.3925 -31.34808,23.29152 -33.66409,19.38811 -78.85134,32.73225 -127.11639,37.5386 -19.44817,1.9367 -49.14651,2.72949 -67.77319,1.80908 z m -18.92536,-89.83806 c -52.70572,-2.12686 -107.13048,-14.6038 -157.24521,-36.04874 -20.84807,-8.9212 -31.86286,-15.65704 -42.93185,-26.25404 -21.3666,-20.45579 -21.85332,-42.88258 -1.37787,-63.49616 14.7721,-14.87166 41.94911,-30.47567 71.19226,-40.87612 40.17759,-14.28905 81.17841,-20.835 130.87416,-20.89434 41.6775,-0.0457 75.61054,3.74205 109.2078,12.20342 29.32296,7.385 60.40977,18.42483 92.83312,32.96829 9.80138,4.39625 35.28037,17.06571 37.08342,18.43965 0.98394,0.74963 -0.54943,0.44886 -6.64935,-1.30519 -44.40635,-12.76738 -99.23006,-22.95976 -145.52074,-27.05395 -31.01303,-2.74284 -67.87275,-2.96362 -85.53241,-0.51195 -76.81068,10.66292 -120.11699,36.8227 -113.43409,68.52146 2.34307,11.11398 11.31656,22.65296 26.97862,34.69173 27.54387,21.17178 59.80952,37.17749 90.40431,44.84598 4.3605,1.09291 9.53361,2.53761 11.49565,3.21045 l 3.56753,1.22337 -2.80025,0.33642 c -2.65344,0.31905 -10.25464,0.31905 -18.1451,2.7e-4 z m 86.69855,-7.17108 C 648.4501,482.3998 612.24247,472.31411 585.65311,455.60237 563.60498,441.74482 545.86716,420.80798 540.18292,401.93136 l -0.36933,-1.22565 12.71782,0.30168 c 6.99474,0.16638 16.05526,0.66827 20.13446,1.1164 71.82113,7.89165 119.37522,35.44283 137.29524,79.54439 0.72586,1.78696 1.32018,3.32444 1.32018,3.41669 0,0.2002 -16.44159,0.0457 -20.45982,-0.18741 z"
       style="fill:#ffffff;stroke-width:0.511492" />
  </g>
</svg>
