<svg xmlns="http://www.w3.org/2000/svg" viewBox="0 0 900 600">
  <rect width="900" height="200" fill="#FF7F00"/>
  <rect y="200" width="900" height="200" fill="#FFF"/>
  <rect y="400" width="900" height="200" fill="#003DA5"/>
  <clipPath id="c"><rect x="240" y="220" width="130" height="160"/></clipPath>
  <rect x="240" y="220" width="130" height="160" fill="#012169"/>
  <g clip-path="url(#c)">
    <line x1="240" y1="220" x2="370" y2="380" stroke="#FFF" stroke-width="34"/>
    <line x1="370" y1="220" x2="240" y2="380" stroke="#FFF" stroke-width="34"/>
    <line x1="240" y1="220" x2="370" y2="380" stroke="#C8102E" stroke-width="20"/>
    <line x1="370" y1="220" x2="240" y2="380" stroke="#C8102E" stroke-width="20"/>
    <rect x="240" y="280" width="130" height="40" fill="#FFF"/>
    <rect x="291" y="220" width="28" height="160" fill="#FFF"/>
    <rect x="240" y="287" width="130" height="26" fill="#C8102E"/>
    <rect x="298" y="220" width="14" height="160" fill="#C8102E"/>
  </g>
  <rect x="385" y="220" width="130" height="53" fill="#FF7F00"/>
  <rect x="385" y="273" width="130" height="54" fill="#FFF"/>
  <rect x="385" y="327" width="130" height="53" fill="#003DA5"/>
  <rect x="530" y="220" width="32" height="160" fill="#007A3D"/>
  <rect x="562" y="220" width="98" height="53" fill="#C8102E"/>
  <rect x="562" y="273" width="98" height="54" fill="#FFF"/>
  <rect x="562" y="327" width="98" height="53" fill="#003DA5"/>
</svg>
